<svg version="1.2" baseProfile="tiny-ps" xmlns="http://www.w3.org/2000/svg" viewBox="0 0 20 20" width="20" height="20">
	<title>New Project</title>
	<defs>
		<clipPath clipPathUnits="userSpaceOnUse" id="cp1">
			<path d="M0 0L20 0L20 20L0 20Z" />
		</clipPath>
	</defs>
	<style>
		tspan { white-space:pre }
		.shp0 { fill: #d42a2a } 
		.shp1 { fill: #ffffff } 
	</style>
	<g id="Artboard 1" clip-path="url(#cp1)">
		<path id="Shape 1" class="shp0" d="M10 20C4.47 20 0 15.53 0 10C0 4.47 4.47 0 10 0C15.53 0 20 4.47 20 10C20 15.53 15.53 20 10 20Z" />
		<g id="Stockholm-icons-/-Navigation-/-Plus">
			<path id="Rectangle-185" class="shp1" d="M5.25 5.25C5.57 4.92 6.11 4.92 6.43 5.25L14.75 13.57C15.08 13.89 15.08 14.43 14.75 14.75L14.75 14.75C14.43 15.08 13.89 15.08 13.57 14.75L5.25 6.43C4.92 6.11 4.92 5.57 5.25 5.25L5.25 5.25Z" />
			<path id="Rectangle-185-Copy" class="shp1" d="M14.75 5.25C15.08 5.57 15.08 6.11 14.75 6.43L6.43 14.75C6.11 15.08 5.57 15.08 5.25 14.75L5.25 14.75C4.92 14.43 4.92 13.89 5.25 13.57L13.57 5.25C13.89 4.92 14.43 4.92 14.75 5.25L14.75 5.25Z" />
		</g>
	</g>
</svg>